<svg width="21" height="20" viewBox="0 0 21 20" fill="none" xmlns="http://www.w3.org/2000/svg">
<g id="apartment">
<path id="Vector" d="M18.6667 17.5H2V15.8333H2.83333V3.33333C2.83333 3.11232 2.92113 2.90036 3.07741 2.74408C3.23369 2.5878 3.44565 2.5 3.66667 2.5H15.3333C15.5543 2.5 15.7663 2.5878 15.9226 2.74408C16.0789 2.90036 16.1667 3.11232 16.1667 3.33333V7.5H17.8333V15.8333H18.6667V17.5ZM14.5 15.8333H16.1667V9.16667H11.1667V15.8333H12.8333V10.8333H14.5V15.8333ZM14.5 7.5V4.16667H4.5V15.8333H9.5V7.5H14.5ZM6.16667 9.16667H7.83333V10.8333H6.16667V9.16667ZM6.16667 12.5H7.83333V14.1667H6.16667V12.5ZM6.16667 5.83333H7.83333V7.5H6.16667V5.83333Z" fill="#252525"/>
</g>
</svg>
