<svg width="21" height="20" viewBox="0 0 21 20" fill="none" xmlns="http://www.w3.org/2000/svg">
<g id="genderBoth">
<path id="Vector" d="M14.4168 1.875V3.125H16.6437L14.5343 5.25375C13.7804 4.68436 12.8616 4.3759 11.9168 4.375C10.748 4.375 9.6568 4.8375 8.83055 5.66438C8.42213 6.06786 8.09788 6.54842 7.8766 7.07817C7.65531 7.60792 7.5414 8.17633 7.54146 8.75044C7.54151 9.32456 7.65555 9.89294 7.87694 10.4227C8.09833 10.9524 8.42268 11.4328 8.83117 11.8363C9.37492 12.38 10.0224 12.7706 10.7449 12.9688C10.8162 12.9144 10.8962 12.8575 10.9599 12.7938C11.2219 12.5273 11.4101 12.1974 11.5062 11.8363C10.8257 11.7525 10.1929 11.4429 9.7093 10.9569C9.1193 10.3675 8.7918 9.585 8.7918 8.75C8.7918 7.915 9.11992 7.13375 9.71055 6.54375C10.2993 5.95188 11.0818 5.625 11.9168 5.625C12.7518 5.625 13.5337 5.95313 14.123 6.54375C14.4146 6.83241 14.6459 7.17606 14.8036 7.55478C14.9613 7.9335 15.0423 8.33976 15.0418 8.75C15.0418 9.29063 14.8887 9.79375 14.6318 10.2538C14.6918 10.5763 14.7293 10.915 14.7293 11.25C14.7293 11.5621 14.7033 11.8683 14.6512 12.1688C14.7762 12.0669 14.8874 11.9513 15.003 11.8363C15.8293 11.0088 16.2918 9.91875 16.2918 8.75C16.2918 7.79375 15.9768 6.885 15.413 6.1325L17.5418 4.02375V6.25H18.7918V1.875H14.4168ZM10.5887 7.03125C10.5174 7.08563 10.4374 7.1425 10.3737 7.20625C10.1037 7.4775 9.92742 7.80625 9.82742 8.16438C10.5087 8.25188 11.1305 8.54938 11.6243 9.04313C12.2149 9.6325 12.543 10.415 12.543 11.2494C12.543 12.0838 12.2149 12.8656 11.6243 13.4556C11.0343 14.0481 10.2518 14.375 9.4168 14.375C8.5818 14.375 7.79992 14.0469 7.21055 13.4563C6.91876 13.1678 6.68726 12.8242 6.52953 12.4454C6.3718 12.0667 6.29099 11.6603 6.2918 11.25C6.2918 10.7094 6.44492 10.2063 6.7018 9.74625C6.63975 9.41772 6.60713 9.08432 6.6043 8.75C6.6043 8.43833 6.63034 8.13208 6.68242 7.83125C6.55742 7.93313 6.4468 8.04875 6.33055 8.16438C5.50555 8.99 5.0418 10.0813 5.0418 11.25C5.0418 12.2063 5.3568 13.115 5.92055 13.8675L4.8668 14.9219L3.6168 13.6719L2.7168 14.5506L3.9668 15.8006L2.7168 17.0506L3.6168 17.9506L4.8668 16.7006L6.1168 17.9506L6.99492 17.0506L5.74492 15.8006L6.79992 14.7469C7.5531 15.3171 8.47208 15.6255 9.4168 15.625C10.5855 15.625 11.6768 15.1625 12.503 14.3356C13.3293 13.51 13.7918 12.4188 13.7918 11.25C13.7918 10.0813 13.3293 8.99125 12.5024 8.16375C11.9587 7.62 11.3112 7.22938 10.5887 7.03125Z" fill="#252525"/>
</g>
</svg>
