<svg width="10" height="14" viewBox="0 0 10 14" fill="none" xmlns="http://www.w3.org/2000/svg">
<g id="Group">
<path id="Vector" d="M9.26024 5.66039C9.26024 8.42706 6.56023 11.7537 5.46023 12.9937C5.21357 13.2671 4.7869 13.2671 4.54023 12.9937C3.44023 11.7537 0.740234 8.42706 0.740234 5.66039C0.740234 3.30706 2.6469 1.40039 5.00023 1.40039C7.35357 1.40039 9.26024 3.30706 9.26024 5.66039Z" stroke="#252525" stroke-width="1.2" stroke-miterlimit="10" stroke-linecap="round" stroke-linejoin="round"/>
<path id="Vector_2" d="M4.99378 7.36744C5.93634 7.36744 6.70044 6.60333 6.70044 5.66077C6.70044 4.7182 5.93634 3.9541 4.99378 3.9541C4.05121 3.9541 3.28711 4.7182 3.28711 5.66077C3.28711 6.60333 4.05121 7.36744 4.99378 7.36744Z" stroke="#252525" stroke-width="1.2" stroke-miterlimit="10" stroke-linecap="round" stroke-linejoin="round"/>
</g>
</svg>
