<svg width="600" height="600" viewBox="0 0 600 600" fill="none" xmlns="http://www.w3.org/2000/svg">
<path fill-rule="evenodd" clip-rule="evenodd" d="M430.14 513.499C502.021 469.589 550 390.397 550 300C550 281.926 548.082 264.299 544.438 247.314C455.24 255.442 384.349 267.034 328.066 284.264C368.971 351.75 402.234 431.416 430.14 513.499ZM407.846 525.607C379.239 440.843 345.296 359.714 303.736 292.397C293.768 296.034 284.316 299.89 275.355 303.981C318.475 371.281 353.379 452.148 382.535 536.055C391.199 533.026 399.646 529.533 407.846 525.607ZM358.52 543.113C329.448 459.628 294.983 380.385 252.904 315.29C250.091 316.854 247.333 318.447 244.631 320.071C240.36 322.638 236.221 325.285 232.211 328.015C272.884 388.544 306.283 463.231 334.471 547.643C342.619 546.519 350.642 545.003 358.52 543.113ZM308.836 549.847C281.7 469.707 250.034 399.687 212.274 343.172C171.889 377.495 147.185 423.328 133.058 486.095C177.32 525.829 235.837 550 300 550C302.957 550 305.903 549.949 308.836 549.847ZM112.415 465.268C128.293 404.955 155.021 358.337 197.84 322.638C191.835 314.528 185.69 306.75 179.397 299.315C157.411 315.364 139.752 333.526 126.17 354.022C109.62 378.997 98.8169 407.899 93.8767 441.509C99.5824 449.804 105.776 457.738 112.415 465.268ZM537.856 222.811C535.733 216.263 533.346 209.833 530.71 203.534C439.329 211.642 362.937 224.26 300.836 242.851C302.363 244.984 303.879 247.133 305.386 249.298C308.38 253.601 311.336 257.97 314.256 262.401C373.429 243.477 447.008 231.249 537.856 222.811ZM519.088 179.487C513.561 169.459 507.365 159.852 500.561 150.726C411.597 164.062 333.946 180.551 269.23 202.847C274.549 208.913 279.757 215.173 284.856 221.612C348.926 201.434 427.019 188.059 519.088 179.487ZM481.727 128.316C436.152 80.0914 371.59 50 300 50C238.705 50 182.562 72.059 139.077 108.671C180.729 124.052 217.692 149.813 250.625 182.907C315.997 159.264 393.803 142.051 481.727 128.316ZM118.491 128.085C113.056 133.821 107.89 139.816 103.013 146.047C136.782 159.7 167.412 180.239 195.266 205.975C204.81 201.384 214.713 196.993 224.964 192.788C192.964 162.501 157.655 140.201 118.491 128.085ZM88.2053 167.111C83.8501 174.038 79.8253 181.193 76.153 188.555C101.701 199.782 125.428 214.617 147.496 232.648C155.186 227.646 163.198 222.844 171.522 218.231C145.904 195.793 118.22 178.401 88.2053 167.111ZM66.1298 211.464C55.7057 238.985 50 268.826 50 300C50 311.358 50.7574 322.539 52.2245 333.496C69.6582 300.071 94.6245 271.761 126.211 247.637C107.361 232.923 87.3707 220.803 66.1298 211.464ZM61.5137 375.218C65.1875 386.878 69.6928 398.168 74.96 409.021C81.5063 383.848 91.5877 360.951 105.33 340.212C120.306 317.613 139.435 297.871 162.592 280.645C157.094 274.915 151.489 269.431 145.773 264.201C105.184 294.038 76.8101 330.321 61.5137 375.218ZM275.81 250.939C278.862 255.074 281.88 259.288 284.864 263.577C286.545 265.992 288.214 268.431 289.872 270.891C279.893 274.671 270.372 278.685 261.293 282.949C256.372 275.901 251.341 269.021 246.198 262.322C255.625 258.328 265.494 254.536 275.81 250.939ZM190.656 236.297C182.44 240.645 174.564 245.156 167.032 249.84C172.65 255.149 178.153 260.676 183.546 266.413C189.746 262.564 196.183 258.857 202.856 255.289C204.07 254.64 205.292 253.995 206.522 253.355C201.328 247.447 196.04 241.758 190.656 236.297ZM217.799 307.582C212.132 299.936 206.327 292.546 200.378 285.425C204.979 282.657 209.734 279.961 214.644 277.336C217.347 275.89 220.096 274.467 222.89 273.065C228.318 279.973 233.64 287.124 238.858 294.504C236.454 295.861 234.086 297.241 231.753 298.643C226.949 301.531 222.298 304.51 217.799 307.582ZM243.963 212.11C233.669 216.128 223.746 220.32 214.203 224.698C219.537 230.326 224.762 236.147 229.881 242.147C239.39 237.941 249.311 233.953 259.644 230.172C254.511 223.932 249.285 217.908 243.963 212.11Z" fill="url(#paint0_linear_420_14)"/>
<circle cx="300" cy="300" r="287.5" stroke="url(#paint1_linear_420_14)" stroke-width="25"/>
<defs>
<linearGradient id="paint0_linear_420_14" x1="50" y1="300" x2="550" y2="300" gradientUnits="userSpaceOnUse">
<stop stop-color="#1AA683"/>
<stop offset="1" stop-color="#1AA715"/>
</linearGradient>
<linearGradient id="paint1_linear_420_14" x1="0" y1="300" x2="600" y2="300" gradientUnits="userSpaceOnUse">
<stop stop-color="#1AA683"/>
<stop offset="1" stop-color="#1AA620"/>
</linearGradient>
</defs>
</svg>