<svg width="20" height="20" viewBox="0 0 20 20" fill="none" xmlns="http://www.w3.org/2000/svg">
<g id="people">
<path id="Vector" d="M13.333 9.1665C14.7163 9.1665 15.8247 8.04984 15.8247 6.6665C15.8247 5.28317 14.7163 4.1665 13.333 4.1665C11.9497 4.1665 10.833 5.28317 10.833 6.6665C10.833 8.04984 11.9497 9.1665 13.333 9.1665ZM6.66634 9.1665C8.04967 9.1665 9.15801 8.04984 9.15801 6.6665C9.15801 5.28317 8.04967 4.1665 6.66634 4.1665C5.28301 4.1665 4.16634 5.28317 4.16634 6.6665C4.16634 8.04984 5.28301 9.1665 6.66634 9.1665ZM6.66634 10.8332C4.72467 10.8332 0.833008 11.8082 0.833008 13.7498V15.8332H12.4997V13.7498C12.4997 11.8082 8.60801 10.8332 6.66634 10.8332ZM13.333 10.8332C13.0913 10.8332 12.8163 10.8498 12.5247 10.8748C13.4913 11.5748 14.1663 12.5165 14.1663 13.7498V15.8332H19.1663V13.7498C19.1663 11.8082 15.2747 10.8332 13.333 10.8332Z" fill="#252525"/>
</g>
</svg>
