<svg width="20" height="20" viewBox="0 0 20 20" fill="none" xmlns="http://www.w3.org/2000/svg">
<g id="reply">
<path id="Vector" d="M15.5354 2.14307C16.1511 2.14307 16.7416 2.38764 17.1769 2.823C17.6123 3.25835 17.8569 3.84881 17.8569 4.46449V10.3574C17.5252 10.108 17.1656 9.89801 16.7854 9.73164V6.78807H3.21401V15.5359C3.21401 16.2259 3.77401 16.7859 4.46401 16.7859H9.73115C9.89829 17.1681 10.109 17.5274 10.3561 17.8574H4.46401C3.84833 17.8574 3.25786 17.6128 2.82251 17.1774C2.38716 16.7421 2.14258 16.1516 2.14258 15.5359V4.46449C2.14258 3.84881 2.38716 3.25835 2.82251 2.823C3.25786 2.38764 3.84833 2.14307 4.46401 2.14307H15.5354ZM15.5354 3.21449H4.46401C4.13249 3.21449 3.81454 3.34619 3.58012 3.58061C3.3457 3.81503 3.21401 4.13297 3.21401 4.46449V5.71664H16.7854V4.46449C16.7854 4.13297 16.6537 3.81503 16.4193 3.58061C16.1849 3.34619 15.867 3.21449 15.5354 3.21449ZM19.2854 14.6431C19.2854 15.8744 18.7963 17.0554 17.9256 17.9261C17.0549 18.7968 15.8739 19.2859 14.6426 19.2859C13.4112 19.2859 12.2303 18.7968 11.3596 17.9261C10.4889 17.0554 9.99972 15.8744 9.99972 14.6431C9.99972 13.4117 10.4889 12.2308 11.3596 11.3601C12.2303 10.4894 13.4112 10.0002 14.6426 10.0002C15.8739 10.0002 17.0549 10.4894 17.9256 11.3601C18.7963 12.2308 19.2854 13.4117 19.2854 14.6431ZM13.4669 12.7531C13.5339 12.686 13.5716 12.595 13.5716 12.5002C13.5716 12.4054 13.5339 12.3144 13.4669 12.2474C13.3998 12.1803 13.3088 12.1426 13.214 12.1426C13.1192 12.1426 13.0282 12.1803 12.9611 12.2474L11.5326 13.6759C11.4993 13.7091 11.4729 13.7485 11.4549 13.7919C11.4369 13.8353 11.4277 13.8818 11.4277 13.9288C11.4277 13.9758 11.4369 14.0223 11.4549 14.0657C11.4729 14.109 11.4993 14.1485 11.5326 14.1816L12.9611 15.6102C12.9944 15.6434 13.0338 15.6698 13.0772 15.6877C13.1205 15.7057 13.167 15.7149 13.214 15.7149C13.261 15.7149 13.3075 15.7057 13.3509 15.6877C13.3942 15.6698 13.4337 15.6434 13.4669 15.6102C13.5001 15.577 13.5264 15.5376 13.5444 15.4942C13.5624 15.4508 13.5716 15.4043 13.5716 15.3574C13.5716 15.3104 13.5624 15.2639 13.5444 15.2205C13.5264 15.1771 13.5001 15.1377 13.4669 15.1045L12.6476 14.2859H14.464C14.985 14.2859 15.4846 14.4929 15.853 14.8612C16.2213 15.2296 16.4283 15.7292 16.4283 16.2502V16.4288C16.4283 16.5235 16.4659 16.6143 16.5329 16.6813C16.5999 16.7483 16.6907 16.7859 16.7854 16.7859C16.8802 16.7859 16.971 16.7483 17.038 16.6813C17.1049 16.6143 17.1426 16.5235 17.1426 16.4288V16.2502C17.1426 15.5398 16.8604 14.8585 16.358 14.3562C15.8557 13.8538 15.1744 13.5716 14.464 13.5716H12.6476L13.4669 12.7531Z" fill="#252525"/>
</g>
</svg>
