<svg width="20" height="20" viewBox="0 0 20 20" fill="none" xmlns="http://www.w3.org/2000/svg">
<g id="year">
<g id="Group">
<path id="Vector" d="M18.1948 2.48096H15.2418C15.1827 2.48096 15.1259 2.50445 15.0841 2.54627C15.0423 2.58809 15.0188 2.64481 15.0188 2.70396C15.0188 2.74196 15.0308 2.77596 15.0473 2.80696V4.50596C15.0474 4.56822 15.0351 4.62989 15.0113 4.68743C14.9876 4.74497 14.9526 4.79725 14.9086 4.84127C14.8646 4.8853 14.8123 4.92021 14.7548 4.94401C14.6972 4.96781 14.6356 4.98002 14.5733 4.97996H13.6543C13.5965 4.97996 13.5393 4.96858 13.4859 4.94646C13.4325 4.92435 13.384 4.89194 13.3432 4.85108C13.3023 4.81023 13.2699 4.76172 13.2478 4.70834C13.2257 4.65496 13.2143 4.59774 13.2143 4.53996V2.83446C13.2436 2.79716 13.2601 2.75139 13.2613 2.70396C13.2614 2.67465 13.2556 2.64563 13.2445 2.61854C13.2333 2.59146 13.2168 2.56685 13.1961 2.54613C13.1754 2.52541 13.1508 2.50898 13.1237 2.4978C13.0966 2.48661 13.0676 2.48089 13.0383 2.48096H7.0858C7.02665 2.48096 6.96993 2.50445 6.92811 2.54627C6.88629 2.58809 6.8628 2.64481 6.8628 2.70396C6.8628 2.73846 6.8723 2.76996 6.8863 2.79946V4.51796C6.8863 4.57869 6.87433 4.63884 6.85109 4.69495C6.82785 4.75106 6.79378 4.80205 6.75083 4.84499C6.70789 4.88794 6.6569 4.92201 6.60079 4.94525C6.54467 4.9685 6.48453 4.98046 6.4238 4.98046H5.6078C5.48394 4.98046 5.36516 4.93126 5.27758 4.84368C5.19 4.7561 5.1408 4.63731 5.1408 4.51346V2.81196C5.1607 2.77939 5.17157 2.74212 5.1723 2.70396C5.17236 2.67465 5.16664 2.64563 5.15546 2.61854C5.14427 2.59146 5.12785 2.56685 5.10713 2.54613C5.08641 2.52541 5.0618 2.50898 5.03471 2.4978C5.00763 2.48661 4.9786 2.48089 4.9493 2.48096H1.8378C1.70638 2.48109 1.58037 2.53332 1.48739 2.6262C1.39442 2.71908 1.34206 2.84504 1.3418 2.97646V17.7435C1.3418 18.0175 1.5643 18.24 1.8378 18.24H18.1948C18.3263 18.2397 18.4523 18.1873 18.5452 18.0942C18.6381 18.0011 18.6903 17.875 18.6903 17.7435V2.97646C18.69 2.84512 18.6377 2.71925 18.5449 2.62638C18.452 2.53351 18.3261 2.48122 18.1948 2.48096ZM18.1948 17.794H1.8378C1.83119 17.794 1.82465 17.7926 1.81855 17.7901C1.81245 17.7876 1.80691 17.7838 1.80226 17.7791C1.79761 17.7744 1.79394 17.7689 1.79146 17.7627C1.78898 17.7566 1.78773 17.7501 1.7878 17.7435V6.60696H18.2443V17.743C18.2444 17.7496 18.2433 17.7561 18.2408 17.7623C18.2384 17.7684 18.2348 17.774 18.2302 17.7788C18.2256 17.7835 18.2201 17.7873 18.214 17.7899C18.2079 17.7925 18.2014 17.7939 18.1948 17.794Z" fill="#252525"/>
<path id="Vector_2" d="M6.07359 4.47186C6.19659 4.47186 6.29659 4.37186 6.29659 4.24886V1.24986C6.29659 1.22057 6.29082 1.19157 6.27961 1.16452C6.2684 1.13746 6.25198 1.11288 6.23127 1.09217C6.21056 1.07146 6.18598 1.05504 6.15892 1.04383C6.13187 1.03262 6.10287 1.02686 6.07359 1.02686C6.0443 1.02686 6.0153 1.03262 5.98825 1.04383C5.96119 1.05504 5.93661 1.07146 5.9159 1.09217C5.89519 1.11288 5.87877 1.13746 5.86756 1.16452C5.85635 1.19157 5.85059 1.22057 5.85059 1.24986V4.24936C5.85059 4.37236 5.95059 4.47186 6.07359 4.47186ZM14.1506 4.47186C14.2736 4.47186 14.3736 4.37186 14.3736 4.24886V1.24986C14.3736 1.22057 14.3678 1.19157 14.3566 1.16452C14.3454 1.13746 14.329 1.11288 14.3083 1.09217C14.2876 1.07146 14.263 1.05504 14.2359 1.04383C14.2089 1.03262 14.1799 1.02686 14.1506 1.02686C14.1213 1.02686 14.0923 1.03262 14.0652 1.04383C14.0382 1.05504 14.0136 1.07146 13.9929 1.09217C13.9722 1.11288 13.9558 1.13746 13.9446 1.16452C13.9334 1.19157 13.9276 1.22057 13.9276 1.24986V4.24936C13.9276 4.37236 14.0271 4.47186 14.1506 4.47186Z" fill="#252525"/>
<path id="Vector_3" d="M4.92138 9.98046C5.60014 9.98046 6.15038 9.43022 6.15038 8.75146C6.15038 8.0727 5.60014 7.52246 4.92138 7.52246C4.24262 7.52246 3.69238 8.0727 3.69238 8.75146C3.69238 9.43022 4.24262 9.98046 4.92138 9.98046Z" fill="#252525"/>
<path id="Vector_4" d="M8.45361 9.98046C9.13237 9.98046 9.68261 9.43022 9.68261 8.75146C9.68261 8.0727 9.13237 7.52246 8.45361 7.52246C7.77485 7.52246 7.22461 8.0727 7.22461 8.75146C7.22461 9.43022 7.77485 9.98046 8.45361 9.98046Z" fill="#252525"/>
<path id="Vector_5" d="M11.9849 9.98046C12.6636 9.98046 13.2139 9.43022 13.2139 8.75146C13.2139 8.0727 12.6636 7.52246 11.9849 7.52246C11.3061 7.52246 10.7559 8.0727 10.7559 8.75146C10.7559 9.43022 11.3061 9.98046 11.9849 9.98046Z" fill="#252525"/>
<path id="Vector_6" d="M4.92138 13.4028C5.60014 13.4028 6.15038 12.8526 6.15038 12.1738C6.15038 11.4951 5.60014 10.9448 4.92138 10.9448C4.24262 10.9448 3.69238 11.4951 3.69238 12.1738C3.69238 12.8526 4.24262 13.4028 4.92138 13.4028Z" fill="#252525"/>
<path id="Vector_7" d="M8.45361 13.4028C9.13237 13.4028 9.68261 12.8526 9.68261 12.1738C9.68261 11.4951 9.13237 10.9448 8.45361 10.9448C7.77485 10.9448 7.22461 11.4951 7.22461 12.1738C7.22461 12.8526 7.77485 13.4028 8.45361 13.4028Z" fill="#252525"/>
<path id="Vector_8" d="M11.9849 13.4028C12.6636 13.4028 13.2139 12.8526 13.2139 12.1738C13.2139 11.4951 12.6636 10.9448 11.9849 10.9448C11.3061 10.9448 10.7559 11.4951 10.7559 12.1738C10.7559 12.8526 11.3061 13.4028 11.9849 13.4028Z" fill="#252525"/>
<path id="Vector_9" d="M4.92138 16.8252C5.60014 16.8252 6.15038 16.2749 6.15038 15.5962C6.15038 14.9174 5.60014 14.3672 4.92138 14.3672C4.24262 14.3672 3.69238 14.9174 3.69238 15.5962C3.69238 16.2749 4.24262 16.8252 4.92138 16.8252Z" fill="#252525"/>
<path id="Vector_10" d="M8.45361 16.8252C9.13237 16.8252 9.68261 16.2749 9.68261 15.5962C9.68261 14.9174 9.13237 14.3672 8.45361 14.3672C7.77485 14.3672 7.22461 14.9174 7.22461 15.5962C7.22461 16.2749 7.77485 16.8252 8.45361 16.8252Z" fill="#252525"/>
<path id="Vector_11" d="M11.9849 16.8252C12.6636 16.8252 13.2139 16.2749 13.2139 15.5962C13.2139 14.9174 12.6636 14.3672 11.9849 14.3672C11.3061 14.3672 10.7559 14.9174 10.7559 15.5962C10.7559 16.2749 11.3061 16.8252 11.9849 16.8252Z" fill="#252525"/>
<path id="Vector_12" d="M15.4341 9.98046C16.1128 9.98046 16.6631 9.43022 16.6631 8.75146C16.6631 8.0727 16.1128 7.52246 15.4341 7.52246C14.7553 7.52246 14.2051 8.0727 14.2051 8.75146C14.2051 9.43022 14.7553 9.98046 15.4341 9.98046Z" fill="#252525"/>
<path id="Vector_13" d="M15.4341 13.4028C16.1128 13.4028 16.6631 12.8526 16.6631 12.1738C16.6631 11.4951 16.1128 10.9448 15.4341 10.9448C14.7553 10.9448 14.2051 11.4951 14.2051 12.1738C14.2051 12.8526 14.7553 13.4028 15.4341 13.4028Z" fill="#252525"/>
<path id="Vector_14" d="M15.4341 16.8252C16.1128 16.8252 16.6631 16.2749 16.6631 15.5962C16.6631 14.9174 16.1128 14.3672 15.4341 14.3672C14.7553 14.3672 14.2051 14.9174 14.2051 15.5962C14.2051 16.2749 14.7553 16.8252 15.4341 16.8252Z" fill="#252525"/>
</g>
</g>
</svg>
